<?xml version="1.0" encoding="UTF-8" standalone="no"?>
<svg
   xmlns:dc="http://purl.org/dc/elements/1.1/"
   xmlns:cc="http://creativecommons.org/ns#"
   xmlns:rdf="http://www.w3.org/1999/02/22-rdf-syntax-ns#"
   xmlns:svg="http://www.w3.org/2000/svg"
   xmlns="http://www.w3.org/2000/svg"
   xmlns:sodipodi="http://sodipodi.sourceforge.net/DTD/sodipodi-0.dtd"
   xmlns:inkscape="http://www.inkscape.org/namespaces/inkscape"
   version="1.1"
   id="svg182"
   width="418.07504"
   height="150.88213"
   viewBox="0 0 418.07504 150.88213"
   sodipodi:docname="keter.svg"
   inkscape:version="1.0.1 (c497b03c, 2020-09-10)">
  <metadata
     id="metadata188">
    <rdf:RDF>
      <cc:Work
         rdf:about="">
        <dc:format>image/svg+xml</dc:format>
        <dc:type
           rdf:resource="http://purl.org/dc/dcmitype/StillImage" />
        <dc:title></dc:title>
      </cc:Work>
    </rdf:RDF>
  </metadata>
  <defs
     id="defs186" />
  <sodipodi:namedview
     pagecolor="#ffffff"
     bordercolor="#666666"
     borderopacity="1"
     objecttolerance="10"
     gridtolerance="10"
     guidetolerance="10"
     inkscape:pageopacity="0"
     inkscape:pageshadow="2"
     inkscape:window-width="1440"
     inkscape:window-height="874"
     id="namedview184"
     showgrid="false"
     inkscape:zoom="1.1416667"
     inkscape:cx="254"
     inkscape:cy="88.18629"
     inkscape:window-x="0"
     inkscape:window-y="26"
     inkscape:window-maximized="0"
     inkscape:current-layer="g190"
     inkscape:document-rotation="0"
     fit-margin-top="0"
     fit-margin-left="0"
     fit-margin-right="0"
     fit-margin-bottom="0" />
  <g
     inkscape:groupmode="layer"
     inkscape:label="Image"
     id="g190"
     transform="translate(-226,-181.81371)">
    <g
       id="g194">
      <path
         style="fill:#b9b9b9;fill-opacity:1"
         d="m 258.75,331.26276 c 2.8875,-0.202 7.6125,-0.202 10.5,0 2.8875,0.202 0.525,0.36728 -5.25,0.36728 -5.775,0 -8.1375,-0.16528 -5.25,-0.36728 z m 72,-0.003 c 3.4375,-0.19527 9.0625,-0.19527 12.5,0 3.4375,0.19527 0.625,0.35504 -6.25,0.35504 -6.875,0 -9.6875,-0.15977 -6.25,-0.35504 z M 596.45775,330.75 c -0.26371,-0.6875 -0.35723,-21.05 -0.20783,-45.25 l 0.27165,-44 0.23922,44.71502 0.23921,44.71501 10.25,0.32409 10.25,0.32409 -10.28138,0.21089 c -7.46433,0.15312 -10.41276,-0.13159 -10.76087,-1.0391 z"
         id="path208" />
      <path
         style="fill:#a3a3a3;fill-opacity:1"
         d="m 453.43772,283.5 c -5.4e-4,-14.85 0.13863,-21.0644 0.30926,-13.80979 0.17063,7.25462 0.17107,19.40462 9.7e-4,27 -0.17009,7.59539 -0.3097,1.65979 -0.31023,-13.19021 z m -0.0636,-53 c 0.002,-6.05 0.16696,-8.39607 0.36601,-5.21349 0.19905,3.18258 0.1972,8.13258 -0.004,11 -0.20131,2.86742 -0.36417,0.26349 -0.36191,-5.78651 z"
         id="path206" />
      <path
         style="fill:#8c8c8c;fill-opacity:1"
         d="m 274.41683,312.5 c 9.6e-4,-10.45 0.14915,-14.58913 0.3293,-9.19806 0.18015,5.39107 0.17936,13.94107 -0.002,19 -0.18111,5.05893 -0.32851,0.64806 -0.32755,-9.80194 z m 78.66212,-21.08333 c 0.048,-1.16495 0.28494,-1.4019 0.60416,-0.60417 0.28887,0.72187 0.25335,1.58438 -0.0789,1.91667 -0.33229,0.33229 -0.56864,-0.25834 -0.52522,-1.3125 z M 274.43772,239.5 c -5.4e-4,-14.85 0.13863,-21.0644 0.30926,-13.80979 0.17063,7.25462 0.17107,19.40462 9.7e-4,27 -0.17009,7.59539 -0.3097,1.65979 -0.31023,-13.19021 z M 392.75,239.33772 c 0.6875,-0.27741 1.8125,-0.27741 2.5,0 0.6875,0.27741 0.125,0.50439 -1.25,0.50439 -1.375,0 -1.9375,-0.22698 -1.25,-0.50439 z m 149.0625,-0.0208 c 0.72187,-0.28887 1.58438,-0.25335 1.91667,0.0789 0.33229,0.33229 -0.25834,0.56864 -1.3125,0.52522 -1.16495,-0.048 -1.4019,-0.28494 -0.60417,-0.60416 z m 95,0 c 0.72187,-0.28887 1.58438,-0.25335 1.91667,0.0789 0.33229,0.33229 -0.25834,0.56864 -1.3125,0.52522 -1.16495,-0.048 -1.4019,-0.28494 -0.60417,-0.60416 z M 300.33621,205 c 0,-4.125 0.17651,-5.8125 0.39226,-3.75 0.21574,2.0625 0.21574,5.4375 0,7.5 -0.21575,2.0625 -0.39226,0.375 -0.39226,-3.75 z"
         id="path204" />
      <path
         style="fill:#767676;fill-opacity:1"
         d="m 253.46909,272 c 0,-32.725 0.12615,-46.1125 0.28033,-29.75 0.15419,16.3625 0.15419,43.1375 0,59.5 -0.15418,16.3625 -0.28033,2.975 -0.28033,-29.75 z m 171.40335,38.25 c -1.24387,-1.58606 -1.2085,-1.62143 0.37756,-0.37756 0.9625,0.75485 1.75,1.54235 1.75,1.75 0,0.82304 -0.82119,0.29331 -2.12756,-1.37244 z M 353.25218,286.5 c 0.0111,-2.2 0.21589,-2.98225 0.45508,-1.73834 0.23919,1.24391 0.23011,3.04391 -0.0202,4 -0.25029,0.95609 -0.446,-0.0617 -0.4349,-2.26166 z M 249.8125,196.31689 c 0.72187,-0.28887 1.58437,-0.25335 1.91667,0.0789 0.33229,0.33229 -0.25834,0.56864 -1.3125,0.52522 -1.16495,-0.048 -1.4019,-0.28494 -0.60417,-0.60416 z m 26,0 c 0.72187,-0.28887 1.58438,-0.25335 1.91667,0.0789 0.33229,0.33229 -0.25834,0.56864 -1.3125,0.52522 -1.16495,-0.048 -1.4019,-0.28494 -0.60417,-0.60416 z"
         id="path202" />
      <path
         style="fill:#606060;fill-opacity:1"
         d="m 427.87244,313.25 c -1.24387,-1.58606 -1.2085,-1.62143 0.37756,-0.37756 1.66575,1.30637 2.19548,2.12756 1.37244,2.12756 -0.20765,0 -0.99515,-0.7875 -1.75,-1.75 z M 388.25,292.25214 c 8.1125,-0.16808 21.3875,-0.16808 29.5,0 8.1125,0.16809 1.475,0.30561 -14.75,0.30561 -16.225,0 -22.8625,-0.13752 -14.75,-0.30561 z m 149,0 c 8.1125,-0.16808 21.3875,-0.16808 29.5,0 8.1125,0.16809 1.475,0.30561 -14.75,0.30561 -16.225,0 -22.8625,-0.13752 -14.75,-0.30561 z m -105.17105,-9.83547 c 0.048,-1.16495 0.28494,-1.4019 0.60416,-0.60417 0.28887,0.72187 0.25335,1.58438 -0.0789,1.91667 -0.33229,0.33229 -0.56864,-0.25834 -0.52522,-1.3125 z"
         id="path200" />
      <path
         style="fill:#494949;fill-opacity:1"
         d="m 528.87244,310.25 c -1.24387,-1.58606 -1.2085,-1.62143 0.37756,-0.37756 0.9625,0.75485 1.75,1.54235 1.75,1.75 0,0.82304 -0.82119,0.29331 -2.12756,-1.37244 z m 43,-1 c -1.24387,-1.58606 -1.2085,-1.62143 0.37756,-0.37756 0.9625,0.75485 1.75,1.54235 1.75,1.75 0,0.82304 -0.82119,0.29331 -2.12756,-1.37244 z M 432.27236,288 c 0,-2.475 0.19502,-3.4875 0.43337,-2.25 0.23836,1.2375 0.23836,3.2625 0,4.5 -0.23835,1.2375 -0.43337,0.225 -0.43337,-2.25 z M 380,261.62244 c 0,-0.20765 0.7875,-0.99515 1.75,-1.75 1.58606,-1.24387 1.62143,-1.2085 0.37756,0.37756 C 380.82119,261.91575 380,262.44548 380,261.62244 Z M 489.33621,249 c 0,-4.125 0.17651,-5.8125 0.39226,-3.75 0.21574,2.0625 0.21574,5.4375 0,7.5 -0.21575,2.0625 -0.39226,0.375 -0.39226,-3.75 z m -30.55269,-29.7384 c 2.90594,-0.20265 7.40594,-0.20052 10,0.005 2.59406,0.20525 0.21648,0.37104 -5.28352,0.36844 -5.5,-0.003 -7.62242,-0.17053 -4.71648,-0.37317 z"
         id="path198" />
      <path
         style="fill:#333333;fill-opacity:1"
         d="M 387.71504,331.96028 C 380.842,330.80473 371.16286,325.95276 366.34925,321.25002 357.62604,312.72771 354,302.67107 354,287 c 0,-15.69842 4.11709,-27.21233 12.85488,-35.95012 6.88889,-6.88889 14.63182,-10.21469 25.18164,-10.81622 C 417.34505,238.79064 432,254.63748 432,283.44741 V 292 h -29 -29 v 3.03212 c 0,7.53349 6.03264,16.17784 13.75838,19.7148 4.61468,2.11267 6.51336,2.43082 12.11494,2.03003 7.40323,-0.5297 11.44358,-2.26158 17.01162,-7.29196 l 3.76546,-3.40187 5.17788,5.243 5.17787,5.243 -4.75307,4.66593 c -9.44501,9.27184 -23.65716,13.22712 -38.53804,10.72523 z M 412.99442,275.75 c -0.0163,-6.58604 -4.57341,-15.37703 -9.28507,-17.91166 -5.90166,-3.17478 -15.3425,-2.65988 -20.66042,1.12682 -3.21111,2.28651 -7.6247,10.15254 -8.57625,15.28484 L 373.77742,278 H 393.38871 413 l -0.006,-2.25 z m 55.69746,55.88162 c -2.7824,-0.78236 -6.26978,-2.76865 -8.27741,-4.71452 C 454.57334,321.25565 454,317.49281 454,284.8185 V 256 h -7.5 -7.5 v -7.5 -7.5 h 7.5 7.5 V 230.5 220 h 10 10 v 10.5 10.5 h 7.5 7.5 v 7.5 7.5 h -7.5 -7.5 v 28 c 0,26.66667 0.0952,28.09524 2,30 2.07294,2.07294 3.88872,2.43676 10.25,2.05379 l 3.75,-0.22577 v 7.47758 c 0,7.12164 -0.1178,7.50715 -2.4746,8.09867 -5.6137,1.40895 -14.26008,1.51333 -18.83352,0.22735 z m 65.55928,-0.0898 c -20.51993,-4.64889 -32.286,-21.04743 -32.23638,-44.92828 0.0551,-26.51668 15.57618,-45.21576 38.53119,-46.42059 12.73582,-0.66846 23.41305,3.21594 29.84233,10.8567 6.57304,7.81162 10.49861,20.69061 10.57681,34.70038 L 581,292 h -29.62781 -29.62781 l 0.67651,4.25 c 1.07976,6.78332 5.62028,13.83237 11.11128,17.25 4.33305,2.69691 5.63573,2.99726 12.89392,2.97286 8.92669,-0.03 13.53058,-1.785 19.0942,-7.27868 l 3.02028,-2.98232 5.37227,4.71169 5.37226,4.7117 -1.75662,2.68094 c -2.5483,3.88919 -10.65715,9.52894 -16.81017,11.69155 -7.43895,2.61458 -18.793,3.27266 -26.46715,1.53405 z M 560.97804,274.25 c -0.0412,-7.04027 -5.14903,-15.14392 -10.97804,-17.41693 -3.79767,-1.4809 -12.45458,-1.16648 -15.82153,0.57464 -4.15904,2.15072 -8.66609,7.90615 -10.1008,12.89855 -0.66285,2.30656 -1.43182,4.98124 -1.70882,5.94374 -0.46742,1.6242 0.90296,1.75 19.06376,1.75 H 561 l -0.022,-3.75 z M 254,271.5 V 212 h -14 -14 v -7.50967 -7.50966 l 5.60825,-7.58348 5.60825,-7.58348 5.50345,7.59314 c 3.4607,4.77474 6.19552,7.59315 7.36796,7.59315 1.15222,0 4.02604,-2.87186 7.52258,-7.51744 l 5.65808,-7.51743 5.57323,7.51743 c 3.27863,4.42238 6.30143,7.51744 7.34192,7.51744 1.03275,0 4.11969,-3.12358 7.41882,-7.50687 l 5.65013,-7.50688 5.37367,7.18261 L 300,196.35148 V 204.17574 212 h -13 -13 l 0.0526,27.75 0.0526,27.75 3.19736,-3.86735 c 1.75856,-2.12704 12.45155,-14.95204 23.76222,-28.5 L 321.62971,210.5 333.81485,210.21922 C 340.51668,210.06479 346,210.20106 346,210.52203 c 0,0.32097 -9.3375,11.70155 -20.75,25.29018 -11.4125,13.58863 -21.34432,25.46182 -22.07072,26.38487 -1.15741,1.47075 1.48837,5.67364 21.39757,33.99059 12.49506,17.77178 23.15698,32.87483 23.69316,33.56233 0.76879,0.98575 -1.64067,1.23894 -11.39757,1.19769 l -12.37244,-0.0523 -17.94807,-25.965 c -9.87144,-14.28075 -18.22637,-25.84471 -18.56652,-25.69769 -0.34015,0.14702 -3.62602,3.47203 -7.30193,7.38891 L 274,293.7432 V 312.3716 331 H 264 254 Z M 597,286 v -45 h 9.5 9.5 v 5.13684 5.13684 l 4.87383,-4.5589 c 5.55194,-5.19319 10.4343,-7.00434 17.62617,-6.53859 l 5,0.32381 0.28753,9.25 0.28752,9.25 -7.28752,0.022 c -8.37421,0.0252 -14.22908,2.18134 -17.61613,6.48727 C 617.04769,268.20908 617,268.95864 617,299.63486 V 331 h -10 -10 z"
         id="path196" />
    </g>
  </g>
</svg>
